<svg width="124" height="38" viewBox="0 0 124 38" fill="none" xmlns="http://www.w3.org/2000/svg">
<rect width="124" height="38" rx="19" fill="#707070" fill-opacity="0.55"/>
<path d="M12.8 23.736L7.016 18.216L12.8 12.72H15.56L9.752 18.216L15.56 23.736H12.8ZM37.1285 10.392V27H34.9445V14.616L29.4245 27H27.8885L22.3445 14.592V27H20.1605V10.392H22.5125L28.6565 24.12L34.8005 10.392H37.1285ZM40.0164 20.376C40.0164 19.032 40.2884 17.856 40.8324 16.848C41.3764 15.824 42.1204 15.032 43.0644 14.472C44.0244 13.912 45.0884 13.632 46.2564 13.632C47.4084 13.632 48.4084 13.88 49.2564 14.376C50.1044 14.872 50.7364 15.496 51.1524 16.248V13.848H53.3604V27H51.1524V24.552C50.7204 25.32 50.0724 25.96 49.2084 26.472C48.3604 26.968 47.3684 27.216 46.2324 27.216C45.0644 27.216 44.0084 26.928 43.0644 26.352C42.1204 25.776 41.3764 24.968 40.8324 23.928C40.2884 22.888 40.0164 21.704 40.0164 20.376ZM51.1524 20.4C51.1524 19.408 50.9524 18.544 50.5524 17.808C50.1524 17.072 49.6084 16.512 48.9204 16.128C48.2484 15.728 47.5044 15.528 46.6884 15.528C45.8724 15.528 45.1284 15.72 44.4564 16.104C43.7844 16.488 43.2484 17.048 42.8484 17.784C42.4484 18.52 42.2484 19.384 42.2484 20.376C42.2484 21.384 42.4484 22.264 42.8484 23.016C43.2484 23.752 43.7844 24.32 44.4564 24.72C45.1284 25.104 45.8724 25.296 46.6884 25.296C47.5044 25.296 48.2484 25.104 48.9204 24.72C49.6084 24.32 50.1524 23.752 50.5524 23.016C50.9524 22.264 51.1524 21.392 51.1524 20.4ZM59.7151 15.648V23.4C59.7151 24.04 59.8511 24.496 60.1231 24.768C60.3951 25.024 60.8671 25.152 61.5391 25.152H63.1471V27H61.1791C59.9631 27 59.0511 26.72 58.4431 26.16C57.8351 25.6 57.5311 24.68 57.5311 23.4V15.648H55.8271V13.848H57.5311V10.536H59.7151V13.848H63.1471V15.648H59.7151ZM64.9773 20.4C64.9773 19.04 65.2493 17.856 65.7933 16.848C66.3373 15.824 67.0893 15.032 68.0493 14.472C69.0253 13.912 70.1373 13.632 71.3853 13.632C73.0013 13.632 74.3293 14.024 75.3693 14.808C76.4253 15.592 77.1213 16.68 77.4573 18.072H75.1053C74.8813 17.272 74.4413 16.64 73.7853 16.176C73.1453 15.712 72.3453 15.48 71.3853 15.48C70.1373 15.48 69.1293 15.912 68.3613 16.776C67.5933 17.624 67.2093 18.832 67.2093 20.4C67.2093 21.984 67.5933 23.208 68.3613 24.072C69.1293 24.936 70.1373 25.368 71.3853 25.368C72.3453 25.368 73.1453 25.144 73.7853 24.696C74.4253 24.248 74.8653 23.608 75.1053 22.776H77.4573C77.1053 24.12 76.4013 25.2 75.3453 26.016C74.2893 26.816 72.9693 27.216 71.3853 27.216C70.1373 27.216 69.0253 26.936 68.0493 26.376C67.0893 25.816 66.3373 25.024 65.7933 24C65.2493 22.976 64.9773 21.776 64.9773 20.4ZM86.8994 13.608C87.8914 13.608 88.7874 13.824 89.5874 14.256C90.3874 14.672 91.0114 15.304 91.4594 16.152C91.9234 17 92.1554 18.032 92.1554 19.248V27H89.9954V19.56C89.9954 18.248 89.6674 17.248 89.0114 16.56C88.3554 15.856 87.4594 15.504 86.3234 15.504C85.1714 15.504 84.2514 15.864 83.5634 16.584C82.8914 17.304 82.5554 18.352 82.5554 19.728V27H80.3714V9.24H82.5554V15.72C82.9874 15.048 83.5794 14.528 84.3314 14.16C85.0994 13.792 85.9554 13.608 86.8994 13.608ZM103.883 4.392L97.307 31.08H95.147L101.699 4.392H103.883ZM107.545 12.72H110.305L116.113 18.216L110.305 23.736H107.545L113.353 18.216L107.545 12.72Z" fill="black"/>
</svg>
